<?xml version="1.0" encoding="UTF-8" standalone="no"?>
<!-- Created with Inkscape (http://www.inkscape.org/) -->

<svg
   xmlns:dc="http://purl.org/dc/elements/1.1/"
   xmlns:cc="http://creativecommons.org/ns#"
   xmlns:rdf="http://www.w3.org/1999/02/22-rdf-syntax-ns#"
   xmlns:svg="http://www.w3.org/2000/svg"
   xmlns="http://www.w3.org/2000/svg"
   xmlns:sodipodi="http://sodipodi.sourceforge.net/DTD/sodipodi-0.dtd"
   xmlns:inkscape="http://www.inkscape.org/namespaces/inkscape"
   width="744.09448819"
   height="1052.3622047"
   id="svg5230"
   version="1.1"
   inkscape:version="0.91 r13725"
   sodipodi:docname="logo.svg">
  <defs
     id="defs5232">
    <filter
       inkscape:menu-tooltip="Draws a black outline around"
       inkscape:menu="ABCs"
       inkscape:label="Black outline"
       color-interpolation-filters="sRGB"
       id="filter5348">
      <feGaussianBlur
         stdDeviation="2"
         in="SourceAlpha"
         result="result0"
         id="feGaussianBlur5350" />
      <feComposite
         result="result3"
         operator="arithmetic"
         in2="result0"
         in="SourceGraphic"
         k2="1"
         k3="10"
         id="feComposite5352" />
      <feComposite
         k2="1"
         operator="in"
         in="result3"
         result="result4"
         in2="result3"
         id="feComposite5354" />
    </filter>
  </defs>
  <sodipodi:namedview
     id="base"
     pagecolor="#ffffff"
     bordercolor="#666666"
     borderopacity="1.0"
     inkscape:pageopacity="0.0"
     inkscape:pageshadow="2"
     inkscape:zoom="0.35"
     inkscape:cx="636.11123"
     inkscape:cy="276.45948"
     inkscape:document-units="px"
     inkscape:current-layer="layer1"
     showgrid="false"
     inkscape:window-width="1276"
     inkscape:window-height="755"
     inkscape:window-x="4"
     inkscape:window-y="1"
     inkscape:window-maximized="1" />
  <metadata
     id="metadata5235">
    <rdf:RDF>
      <cc:Work
         rdf:about="">
        <dc:format>image/svg+xml</dc:format>
        <dc:type
           rdf:resource="http://purl.org/dc/dcmitype/StillImage" />
        <dc:title />
      </cc:Work>
    </rdf:RDF>
  </metadata>
  <g
     inkscape:label="Layer 1"
     inkscape:groupmode="layer"
     id="layer1">
    <g
       id="g5382"
       transform="matrix(0.43893704,0,0,0.43893704,2867.5598,-638.43451)">
      <ellipse
         transform="matrix(1.7709185,0,0,1.7709185,4656.6347,-2421.8579)"
         id="path5362-3"
         style="fill:#b3b3b3;stroke:#b3b3b3"
         cx="-5822.519"
         cy="2830.2307"
         rx="412.14224"
         ry="416.18286" />
      <ellipse
         transform="matrix(1.6545534,0,0,1.6545534,3979.0967,-2092.5178)"
         id="path5362"
         style="fill:#cccccc;stroke:#999999"
         cx="-5822.519"
         cy="2830.2307"
         rx="412.14224"
         ry="416.18286" />
    </g>
    <g
       id="g5331"
       transform="matrix(0.68806744,0,0,0.68806744,124.15279,137.99573)"
       style="stroke:#c87137;filter:url(#filter5348)">
      <path
         style="fill:#e19250;stroke:#c87137"
         d="M 350.74164,899.11422 C 368.111,830.87024 265.2846,869.66238 235.566,836.7527 197.47871,864.33835 192.96995,856.37539 213.30835,817.82782 192.57661,777.32696 143.60088,768.57777 119.65064,734.30546 50.305946,750.64098 98.811505,707.40705 107.8382,680.56437 73.879221,598.77493 149.09003,499.45797 237.62682,513.1405 304.78149,512.57061 157.23068,437.13234 150.05777,507.89359 148.71676,475.83774 127.61172,462.55485 129.29049,480.77921 98.200619,480.65411 50.641609,511.35412 83.864103,470.65116 83.666558,427.2551 7.7522809,386.45795 81.476842,406.31048 118.8675,391.98672 31.314811,361.33849 78.09758,347.75809 55.523997,318.7689 40.240328,364.57493 18.611456,318.25005 c -36.62369,-47.47926 61.518903,25.73616 7.011308,-34.54928 31.095269,-1.38257 106.174866,65.51737 101.710806,11.77808 53.41391,69.54433 -5.89348,-98.52142 64.36192,-73.09693 14.28965,34.63707 55.82727,50.16396 47.07859,98.2544 21.11455,11.98099 37.63354,-48.26744 30.33105,5.68532 -15.47989,15.12732 -32.00652,81.47998 -11.00439,59.38655 8.91039,72.72783 120.11034,78.99314 86.22506,165.06815 -29.28067,41.31103 -21.87075,84.35049 36.13973,61.43714 46.2249,20.89964 59.98286,5.24828 54.65142,-45.74777 84.30463,-21.83324 -1.43207,-112.24488 -39.38288,-142.72609 -18.40752,-57.11208 -74.05951,-96.56128 -107.87127,-126.38506 44.01101,-21.0695 -60.7491,-50.71479 -3.97229,-83.65568 48.84359,-28.35713 92.08367,-74.15665 149.27624,-54.07893 58.64537,-5.22732 114.38753,36.15915 172.1053,25.98868 32.08427,33.71018 54.44258,26.55386 60.24825,74.0177 58.33849,40.37878 73.99352,98.73856 88.12751,163.77902 0.26935,74.30432 11.82789,158.14302 -38.28032,223.87029 -27.27717,57.47518 -85.93819,95.94499 -124.9687,140.87944 -54.04565,45.72406 -114.49616,81.76303 -184.32171,95.37992 -37.78552,-16.34396 -26.10598,-17.45612 -55.33544,15.57922 z m -1.20117,-202.58903 c 48.70527,-63.13657 -54.93812,-17.27371 0,0 z m 67.04641,-7.4633 c 4.90487,-51.13021 -35.24296,9.97387 0,0 z m 54.85879,-11.44784 c -3.08214,-16.18885 18.42149,-34.49805 -19.49879,-26.37843 -3.76782,11.28486 7.57643,26.66825 19.49879,26.37843 z m -185.80282,-1.05959 c 47.6801,-11.59524 -28.35394,-28.39771 -3.7966,0.60009 l 3.7966,-0.60009 z m -20.25,-41.20177 c 5.52058,-13.82396 -20.73921,13.6288 0,0 z m 223.39692,-18.13428 c 3.63208,-57.13249 -40.39606,-3.97836 2.21419,9.45423 l -2.21419,-9.45423 z M 603.44251,502.2908 c 40.5423,-25.8457 -66.61222,-20.92428 0,0 z M 575.10026,402.09599 c 25.4467,-62.89585 -62.45359,-26.25695 -20.42885,4.50803 l 10.92189,-1.76198 9.50696,-2.74605 z m -76.53953,-21.84434 c -20.11278,-37.42118 -77.813,14.65154 -11.52591,7.43509 l 6.66908,-2.26852 4.85683,-5.16657 z M 63.142847,317.97368 c -3.740055,-14.59609 -4.867522,8.2792 0,0 z M 430.95596,269.25506 c -4.89285,-9.76155 -5.10882,7.13142 0,0 z m 23.18689,-111.25 c -2.02425,-4.15383 -1.43143,3.90518 0,0 z M 107.3077,583.31309 c -3.17993,-9.5598 5.59494,4.22895 0,0 z m 20.50182,-48.9747 c -4.67906,-20.08817 24.04768,-6.30864 0,0 z m -21.76179,-28.94795 c 1.4143,-20.11375 20.60794,9.96696 0,0 z M 43.797835,442.17632 c 2.360325,-16.35637 17.34276,13.09352 0,0 z m -17.05985,-11.67126 c -50.699565,-34.35218 69.279994,-1.54576 7.361298,-4.46218 l -1.324376,3.46678 -6.036922,0.9954 z m -5.963142,-25.08514 c -56.239574,-18.54714 35.172428,-20.19341 7.525844,1.87316 l -7.525844,-1.87316 z m 38.910709,-68.34576 c -0.167754,-5.24691 3.412795,3.51462 0,0 z m 55.112288,-49.89784 c -31.117428,-28.39979 6.15688,-25.32864 0,0 z m 15.09833,-20.42126 c -24.68717,-23.71015 -16.45026,-75.41346 5.62666,-18.97088 6.16874,5.84929 9.44841,26.2181 -5.62666,18.97088 z"
         id="path5337"
         inkscape:connector-curvature="0" />
      <path
         style="fill:#ab6d49;stroke:#c87137"
         d="m 350.67687,898.0601 c 17.86735,-63.5049 -83.35896,-39.33753 -115.61992,-59.90327 -58.19108,42.89572 7.82737,-47.27196 -52.46003,-58.19658 -42.43672,5.41929 -48.84674,-76.59943 -99.5925,-41.4123 -16.74381,-30.70336 28.12525,-26.78852 28.01222,-56.69338 -1.16953,75.91398 105.80772,80.74703 106.47998,148.70444 -18.96917,22.19056 47.75021,-19.38312 64.19243,12.84372 63.82717,-1.86044 117.11968,59.62416 176.93236,14.60233 -65.76527,-1.18178 47.18984,-28.37689 30.41277,-24.11106 -11.13564,-10.59991 -50.70992,-43.0866 -34.78658,-2.68696 -32.11316,-8.06838 -37.51574,7.30695 -64.05466,-2.85228 -61.43127,38.56237 -159.17705,-18.73975 -171.87859,-64.7833 -43.02478,28.30354 -107.52074,-74.07209 -39.36489,-88.05664 38.37718,38.10561 106.74658,109.58269 151.6273,90.08304 42.39488,41.06484 88.57866,-5.34565 116.42355,10.8185 -30.89332,-29.01377 4.05084,-69.09066 0.72951,-18.49559 30.89722,18.28357 55.38965,1.66852 71.23468,26.82472 25.02252,-60.24691 70.30045,-122.64105 119.58437,-53.87835 31.57013,-27.72788 96.8575,-87.77238 29.09758,-80.60567 -18.44976,-34.50304 -65.65245,-137.21998 -87.99633,-63.3077 -28.74929,-24.04256 19.94483,-46.84856 -34.69783,-55.98701 -49.90487,-35.14481 -25.82886,31.77745 -28.58287,29.497 -31.69635,-18.05421 -26.67173,-28.2731 -33.47776,2.60989 -34.60584,-15.16562 26.6808,26.29611 -23.37313,8.24405 5.03658,25.86139 -45.90225,-25.60373 -14.51711,23.7167 16.61906,41.20176 -40.59067,-39.9042 11.81139,-34.61818 55.63811,-40.21808 -33.70927,-107.76421 -63.83569,-142.11587 -19.31215,-51.66532 -64.95833,-93.19897 -104.71707,-116.3454 48.61844,-26.35207 -64.58631,-61.90323 2.53988,-90.71569 53.86634,-44.41067 105.20342,-65.63788 174.30513,-53.06909 59.31309,40.85353 132.3798,1.25954 179.49581,59.11047 9.13657,34.56058 63.10385,83.94908 92.84447,124.61823 5.26091,61.74844 23.05759,121.09604 19.90482,182.76452 -13.07752,58.27074 -22.4459,115.25567 -66.25677,159.21872 -42.27607,43.12616 -75.93907,93.44973 -129.4405,124.15743 -48.37839,36.37202 -107.2195,74.43893 -170.40274,69.4313 -26.11179,-18.37902 -22.39863,9.69484 -40.57328,20.58926 z m 110.46598,-46.05504 c -2.29716,-4.22507 -2.29716,4.22507 0,0 z m -185.33583,-7.56722 c -0.0682,-9.09798 -6.05102,6.39624 0,0 z m 244.13583,-5.63278 c 24.76207,-34.24383 -52.38356,-0.16565 0,0 z m -184.8,-8.71896 c 16.06552,-20.55504 -9.17543,-15.88904 0,0 z m 104.65492,-9.53791 c -4.89056,-6.42486 -0.10768,6.90108 0,0 z m 117.71684,-19.49751 c 47.7682,-20.50417 19.61562,-21.61871 -0.82607,-43.72625 -13.51199,4.41969 -21.29584,49.0349 0.82607,43.72625 z m 8.02125,-15.62741 c 2.21359,-9.97081 5.00313,6.33401 0,0 z m 36.87486,-10.95426 c 13.09524,-23.74378 -29.29744,3.50095 0,0 z m 11.09727,-14.53653 c 9.60512,-12.09567 -13.91992,7.36264 0,0 z m -24.43522,-12.38411 c 2.73276,-22.35335 -13.27809,12.17532 0,0 z m 8.57008,-11.54331 c -2.61334,-4.41017 -3.07807,4.65291 0,0 z m -480.74551,-14.25 c 7.03815,-37.28673 -25.319449,19.12837 0,0 z m 483.24551,-1.75 c -1.43143,-3.90518 -2.02425,4.15383 0,0 z m 46.99197,-151.5 c 25.65558,-41.59758 -30.92985,21.94874 0,0 z m 104.0879,-33.64924 c 6.01979,-27.4161 -5.8583,-82.0331 -25.79696,-40.95164 -53.82838,-35.78105 -22.59774,71.1437 3.00694,15.77103 8.56064,6.88878 7.89126,28.00536 22.79002,25.18061 z m -7.57987,-29.85076 c 1.43143,-3.90518 2.02425,4.15383 0,0 z m -140.68523,26.25 c -4.67651,-9.45743 -6.28237,6.46867 0,0 z m 54.25097,0.71482 C 733.20351,488.9707 582.53988,405.1842 546.6193,459.69807 c -47.46631,11.11044 30.64528,-29.43581 -25.96703,-19.99374 -75.52671,22.77017 39.85169,47.25015 58.36817,33.57656 24.10252,-2.76703 52.91087,-17.54202 36.2121,19.6439 -79.59886,-41.50462 20.7975,47.46547 41.97605,39.04509 z m -9.47685,-17.04155 c -21.48407,-19.82892 20.23771,9.33279 0,0 z m -85.5846,9.57156 c 14.68808,-72.16005 -151.71232,-27.91599 -55.46571,-30.34976 18.92969,2.17611 30.00919,37.63665 55.46571,30.34976 z m -72.77992,-2.08793 c -2.62333,-21.10259 -21.45336,8.21871 0,0 z m 8.73928,-10.8631 c -2.10078,-13.33107 -18.17136,10.42313 0,0 z m 77.498,-25.8921 c -0.12423,-13.65489 -17.35981,9.75296 0,0 z m -105.66829,-20.1517 c -5.44067,-54.60692 -85.94126,-22.20932 -16.01892,-1.82256 l 7.85399,2.11492 8.16493,-0.29236 0,0 z m 34.84735,-21.32301 c 72.07284,-18.21155 -25.78804,-25.4752 1.2073,-31.94288 65.66722,8.80997 37.43133,-81.61095 -3.35773,-32.05392 -40.19526,36.92948 -68.95962,55.73345 2.15043,63.9968 z m -23.00123,-20.87084 c -2.61747,-5.434 6.1877,1.37742 0,0 z m 82.16052,14.49385 c 4.24377,-13.01343 -11.49591,4.17766 0,0 z m -16.38179,-0.40699 c 2.93057,-8.09314 -10.82285,6.7301 0,0 z M 748.4797,433.7557 c 11.60042,-25.34608 -19.91152,-5.89997 0,0 z m -337.33685,-3.25064 c 29.47315,-8.45287 -19.06412,-25.23858 0,0 z m 221.64104,-1.80771 c -3.27964,-39.68 -40.45731,-110.44856 -53.05096,-33.54459 -1.47765,30.96733 22.7403,9.57794 39.98468,36.16513 l 13.06628,-2.62054 z m -77.83666,-2.32654 c -10.39665,-15.53137 -8.80688,11.49614 0,0 z M 436.14285,415.00506 c -2.02425,-4.15383 -1.43143,3.90518 0,0 z m -29.19168,-7.34551 c -22.00285,-49.5933 -45.69928,-23.88242 -3.73291,5.182 l 2.14982,-0.86086 1.58309,-4.32114 z m 168.65327,-4.98646 c 25.38944,-63.83503 -62.27781,-32.66602 -22.69811,5.24131 l 12.34395,0.28825 10.35416,-5.52956 z m -128.01438,2.24656 c -4.6493,-2.65725 0.29754,5.34682 0,0 z m -3.17412,-3.18388 c -2.12354,-42.03346 -64.95215,-84.56241 -22.45351,-20.5337 l 9.58663,12.08882 12.86688,8.44488 z m -33.27309,-45.28973 c 3.42128,-3.98928 1.08358,5.65108 0,0 z m 233,37.66601 c -4.21327,-12.42961 -6.65576,9.09276 0,0 z M 500.05888,379.2897 c -30.32193,-37.47686 -75.55947,17.14726 -11.19316,9.76084 l 7.24549,-2.88352 3.94767,-6.87732 0,0 z m -90.18172,-0.28138 c -12.3499,-33.51546 -15.13101,15.47977 0,0 z m -36.73431,-17.43068 c -2.5849,-22.87569 -10.69153,9.06886 0,0 z m 77.5,-1.57258 c -3.8194,-5.0834 -2.95812,4.67228 0,0 z m 101.7791,-9.75 c -25.75844,-24.54087 -59.37726,-19.86493 -17.03803,3.91765 l 8.81786,-1.15026 8.22017,-2.76739 z m -158.22773,-2.98122 c 4.91891,-30.80428 -17.31021,20.51074 0,0 z m 96.82361,1.0961 c 54.18781,-58.53276 -90.9781,-37.79623 -16.22374,2.92323 l 16.22374,-2.92323 0,0 z m -22.87498,-15.2923 c 5.84688,-15.44471 12.05558,6.74805 0,0 z m 217.41214,-1.45849 c 61.99022,-16.09771 -28.98107,-56.41761 -7.26276,2.24002 l 7.26276,-2.24002 z M 386.58708,330.0953 c -15.19556,-22.59223 -33.70904,12.47437 0,0 z m -31.94423,-7.05109 c 14.09757,-22.24285 -39.68714,4.51096 0,0 z m 186.60179,-2.78915 c -8.53514,-22.00747 -18.92038,5.61734 0,0 z m -237.35447,-7.7994 c -6.60098,-17.77463 -5.84872,15.62704 0,0 z m 360.05268,3.3494 c 6.32659,-14.67241 -13.60141,5.87367 0,0 z m -335.05,-4.35516 c -9.30391,-18.25733 -21.92377,13.71224 0,0 z m 79.25,-7.38582 c -1.19757,-6.46348 -4.30746,3.63606 0,0 z m 122,-4.5 c -0.66696,-8.44209 -4.64623,4.40716 0,0 z m 146,-2.55902 c -2.29716,-4.22507 -2.29716,4.22507 0,0 z m -76,-2.94098 c -1.19757,-6.46348 -4.30746,3.63606 0,0 z m 69.8455,-10.50705 c -3.85142,-5.23815 -1.80788,9.93998 0,0 z m -145.8455,-5.11099 c -4.41719,-6.67346 -2.33661,7.28451 0,0 z m -211.30944,-3.60768 c 2.58421,-14.48559 19.14803,-21.66468 -17.3618,-17.87861 -15.9747,10.75495 5.97156,24.98506 17.3618,17.87861 z m 119.12071,-5.5201 c -8.93477,-22.10429 -17.50448,13.20935 0,0 z m -96.42309,-9.18964 c -0.68307,-10.6414 -9.62557,9.07582 0,0 z m 161.61668,-1.12616 c 15.52541,-25.83112 -34.28009,-40.80298 -8.07846,-6.59774 l 1.78069,5.49629 6.29777,1.10145 z m -201.29057,-15.9974 c 24.93368,-38.68872 -66.98913,17.21767 0,0 z m 160.73588,1.08062 c -4.13322,-11.96834 -13.58984,7.60888 0,0 z M 328.52683,230.93963 c 49.32748,-12.22834 -39.72047,-45.59616 -1.98068,-11.72225 -0.16058,4.68767 -11.28116,18.66383 1.98068,11.72225 z M 649.626,227.0383 c 8.49758,-27.87159 -12.03504,16.9977 0,0 z m -112.48315,-0.59226 c -3.60471,-5.49305 -0.89505,7.41048 0,0 z m -155.17067,-4.79328 c -4.45429,-6.34702 -3.09508,10.20099 0,0 z m 9.69884,-0.67883 c 1.11878,-14.54355 -12.75162,8.17292 0,0 z m 137.47183,-11.09131 c -3.15252,-5.0169 -1.30038,8.13774 0,0 z m 86.01106,-5.89823 c 1.62764,-13.82351 -9.43932,8.84323 0,0 z m -45.51106,-4.97933 c 34.05015,-15.50006 3.01081,-21.39064 -6.30805,-1.27507 l 6.30805,1.27507 z m -27.52292,-1.95718 c 1.53913,-17.48043 -12.89036,11.92752 0,0 z m 14.10758,-5.35816 c -4.69142,3.76093 6.7579,6.8647 0,0 z m -200.80312,-6.93466 c 2.2773,-14.6735 -10.12212,5.74423 0,0 z m 12.52469,-5.96427 c -6.6271,-13.26543 -8.24343,10.21923 0,0 z m 51.94377,-6.03448 c -14.6863,-10.24361 -21.5637,11.88301 0,0 z m 35.07332,-15.08412 c -4.27705,-6.26185 -2.46261,8.19278 0,0 z m -52.60006,718.66168 c -16.10255,-41.1316 53.8319,2.07118 0,0 z M 191.14285,855.47284 c 3.42836,-11.80912 7.23559,6.32114 0,0 z m 204.29512,-75.72879 c -12.64775,-18.77425 12.80236,-6.54961 0,0 z m 113.89655,-2.81399 c 2.98082,-4.79479 2.98082,4.79479 0,0 z M 385.71765,764.437 c -40.16253,-47.79724 64.49559,-7.14567 0,0 z m -80.5748,-9.36239 c 5.32384,-20.9027 13.8566,0.95419 0,0 z m -9.63029,-8.31955 c -0.85506,-15.72935 8.80906,4.6081 0,0 z m 15.29696,-9.41667 c -0.29901,-11.11047 11.48427,5.93453 0,0 z m -159.41667,-1.05357 c -6.99546,-6.86643 9.27016,-2.7528 0,0 z m 143.25,-3.27976 c 2.02425,-4.15383 1.43143,3.90518 0,0 z m 103.5,-2.5 c -24.87852,9.17693 -2.16054,-17.71351 0,0 z m -78.66975,-6.5058 c -31.8615,1.33309 15.68834,-27.61545 0,0 z m 135.87392,-3.93191 c -44.01967,-22.8418 39.92229,-53.06803 -3.792,-14.37324 -3.23264,4.46581 20.02519,19.5471 3.792,14.37324 z m -98.70417,0.93771 c 3.07807,-4.65291 2.61334,4.41017 0,0 z m -124.5,-2.96482 c 2.1963,-17.02674 9.19376,7.60348 0,0 z m 165,-0.84997 c -37.51749,-18.27068 24.70298,-29.3321 0,0 z M 321.64698,704.5533 c -21.98004,-33.43411 30.29893,6.61425 0,0 z m -101.50413,2.09411 c 0.98735,-12.10121 6.7969,6.71894 0,0 z m 423.64109,-0.36911 c -62.05347,-32.18675 -20.46718,-70.43991 2.0335,-33.6544 -60.19451,-70.35844 89.89499,23.58212 4.30395,33.83621 l -6.33745,-0.18181 0,0 z m -19.14109,-31.27324 c -5.58836,-5.2679 -6.73909,5.55205 0,0 z m -109.03997,29.93533 c 8.8492,-31.56164 33.05715,-3.38407 0,0 z m 18.21925,0.31467 c -5.21203,-37.59776 55.53101,-8.22953 0,0 z m -189.67928,-3.7356 c 14.58756,-14.05343 11.40947,0.61846 0,0 z m 63.8125,-5.19751 1.45169,0.31915 -1.45169,-0.31915 z m -118.60983,-1.17799 c 0.37564,-10.70207 13.67073,5.61978 0,0 z m 71.54733,-4.31936 c 13.64853,-32.16848 -0.80717,10.5693 0,0 z m -63.75,-3.24622 c 3.84802,-7.97366 4.53567,6.06522 0,0 z m -47,-1.56078 c -5.67233,-21.15834 -48.37593,-32.66975 -2.54592,-42.56344 -41.71985,-16.13919 -142.0422,17.79664 -125.35654,22.74351 26.35396,-30.15191 10.54762,-23.97147 -2.19311,-40.29943 -3.76926,-38.04569 47.35299,-74.03789 51.12912,-35.40041 -27.29591,12.46226 -43.63681,5.84044 -18.24034,42.08061 33.92964,20.39553 58.91463,-70.98205 96.54525,-5.24447 50.2894,1.21996 -38.7465,56.58005 18.31311,32.31243 3.46714,11.6567 -7.54271,22.84427 -17.65157,26.3712 z m -7.75,-30.67482 -2.43984,0.0477 2.43984,-0.0477 z m 349.25,30.66228 c 2.02425,-4.15383 1.43143,3.90518 0,0 z M 413.83866,673.2879 c -27.94209,-33.98604 25.65861,22.29256 0,0 z m 51.74532,7.13552 c 3.5826,-4.84933 12.72907,10.2236 0,0 z m 62.55887,-3.03768 c -19.80261,-32.77774 34.35447,13.24111 0,0 z m -70,-1.38068 c 2.61334,-4.41017 3.07807,4.65291 0,0 z m -97.78462,-5.71198 c -9.59698,-22.48369 22.51839,-70.83414 -28.31117,-40.89896 -18.42444,-14.95514 -118.12147,-24.52815 -39.94616,-29.55709 90.09923,-32.7909 46.8579,-145.88363 -23.4568,-174.5958 -27.83089,-53.16081 -54.76543,-39.10484 -78.99883,7.32911 -3.99187,32.44721 16.70832,27.78709 -14.54727,42.15392 -17.85299,64.33444 -43.62348,-28.8222 -92.804547,14.37862 -13.230594,4.74638 24.240517,-24.04338 -6.059995,-43.58375 -8.437969,-37.86243 -54.432062,-52.94467 2.419178,-38.5568 31.807314,-22.13886 -31.571022,-43.76518 -5.244782,-68.02844 -23.516493,-10.54894 -31.707861,24.68269 -53.45984,-20.90475 -41.618913,-46.3879 69.227147,28.15126 9.047861,-27.09338 15.173442,-14.89254 107.981685,57.70679 102.617065,8.68934 40.8826,48.55418 3.17658,-119.48197 60.39741,-73.8872 5.91229,35.14512 53.67133,34.4643 42.9223,83.16307 0.54326,57.35642 47.2773,-46.63533 30.93335,19.49969 5.03339,28.37725 -32.13343,46.89311 -27.99866,50.08112 -22.24161,45.29848 41.20385,-19.52729 29.6704,40.51763 69.82027,38.74806 107.23508,118.59989 51.84653,190.13811 14.41063,27.44252 98.72552,-19.7015 52.37898,34.95047 -1.35615,7.90735 -18.61971,16.8715 -11.40502,26.20509 z m -60.71773,-62.1237 c -5.45031,-1.43327 -2.25719,5.5481 0,0 z M 162.64285,444.00506 c -4.90733,-6.41887 -4.1152,8.6594 0,0 z m 11.5,-20.05902 c -4.06005,-4.78862 -1.85227,5.80144 0,0 z M 57.642847,408.00506 c -3.104326,-7.5612 -3.09393,7.44092 0,0 z m 148.500003,-8.11079 c 29.4924,-2.22313 -12.74186,-4.0308 0,0 z m -95,-27.38921 c -2.31542,-5.75915 -2.31542,5.75915 0,0 z m 89.23626,-11.27149 c 4.83588,-56.98874 -31.3272,-47.05426 0,0 z m 50.18034,-6.47851 c 47.84568,-86.02338 -32.72026,12.29928 0,0 z m -85.4166,-5.19098 c -0.89505,-7.41048 -3.60471,5.49305 0,0 z m 62.47806,-11.38416 c 0.35978,-35.32507 -7.88066,36.20946 0,0 z m -43.02173,8.48073 c 7.45122,-24.57549 -21.14935,3.24934 0,0 z M 51.66992,333.96126 c -0.269363,-12.49058 -10.712523,6.22927 0,0 z m 104.47293,-0.9562 c -2.02425,-4.15383 -1.43143,3.90518 0,0 z m 8.15753,-8.75 c 5.0872,-54.69045 -14.88349,1.301 0,0 z m 37.42904,-0.64022 c -5.55765,-14.04066 0.41157,16.99221 0,0 z M 177.6656,321.9334 c -0.22805,-18.53828 -10.75668,8.28266 0,0 z M 63.953531,318.31251 c -3.823798,-15.94312 -8.008851,8.85572 0,0 z M 230.84,315.46584 c 7.96562,-33.40992 -13.29927,11.4385 0,0 z M 94.142847,315.29136 c -9.564013,-16.47737 -18.493137,12.08228 0,0 z m 79.254303,-5.5363 c 11.70985,-25.05615 -11.48446,0.94391 0,0 z m 50.06402,-21.87222 c 1.28879,-39.52036 -18.27868,18.01906 0,0 z m -59.76203,-3.24603 c 5.49661,-15.10808 -10.33741,-29.25498 0,0 z m 36.80534,-9.13175 c 4.09686,-11.53785 -7.48816,4.86612 0,0 z m -14.296,-32.85191 c 8.88759,-56.20909 -12.56403,17.5395 0,0 z m -16.7247,-3.64809 c 0.63968,-12.43407 -10.63121,14.02458 0,0 z m 307.17425,427.0691 c -28.5229,-18.30621 13.00168,2.2656 0,0 z m -23.01518,-0.0691 c -2.67964,-9.3463 4.15367,5.41928 0,0 z m -347.81257,-2.37215 c -8.777002,-13.65733 4.9291,-6.20732 0,0 z m 564.84122,-2.98324 c -4.80006,-12.76944 13.00005,4.85785 0,0 z m -240.66261,-3.14461 c -25.88582,-27.01826 12.16992,-2.16433 0,0 z m -123.33482,0.20687 c -3.25903,-9.41915 4.34319,3.34422 0,0 z m 283.46878,-3.25462 c -18.27977,-52.54442 52.3523,-18.08515 0,0 z m -184.66417,-5.01947 c -2.0042,-9.97035 4.96415,3.70577 0,0 z m 52.41473,-2.68278 c -16.07812,-30.02838 26.65826,16.43104 0,0 z m -355.01372,-1.25 c -5.419459,-34.00119 6.48709,6.44414 0,0 z m 170.28845,1.51563 c 0.4828,-14.57165 18.5671,0.96813 0,0 z m 32.61487,-2.7088 c -0.2453,-9.17961 10.17602,3.14464 0,0 z m 112.15912,-6.06726 c -18.62977,-18.77444 10.5744,3.85342 0,0 z m 3.85571,-2.06831 c -10.4245,-19.64864 11.5725,-8.58583 0,0 z m 67.1633,0.15547 c -18.00293,-20.55406 -19.01531,-39.94644 0,0 z m -46.67817,-2.78143 c -4.27722,-25.25653 7.9552,8.40834 0,0 z m 78.44238,1.5487 c -12.23575,-13.13529 23.97287,-6.10436 0,0 z M 171.6714,628.64959 c -7.47891,-9.23324 9.07402,0.59546 0,0 z m 413.97242,-3.64297 c -11.81405,-20.30315 16.95779,-9.26373 0,0 z m -189.95626,-1.86068 c 16.54064,-24.17936 14.34664,1.39921 0,0 z m 115.92016,0.80228 c -0.43956,-16.59224 22.29873,2.19885 0,0 z m -360.44956,-0.69316 c 0.61378,-8.51091 6.87008,4.57026 0,0 z m 409.25996,-1.1849 c -22.80773,-27.7823 34.61283,-7.7883 0,0 z M 101.1012,620.45487 c -5.112495,-11.07397 8.06803,2.76363 0,0 z m 327.45259,-3.28397 c 17.7951,-30.67509 4.08147,11.61171 0,0 z m -252.91094,-3.16584 c 1.43143,-3.90518 2.02425,4.15383 0,0 z m 222.5,-4.5 c 0.94109,-5.82221 5.37761,7.3668 0,0 z m -234.34934,-3.96797 c 1.08893,-7.93743 5.49076,6.51871 0,0 z m -62.07645,-4.19925 c 1.46077,-12.59184 11.21481,5.33183 0,0 z m 415.70755,-5.17795 c -34.14433,-10.73069 37.93802,1.04871 0,0 z m -276.70389,-1.02883 c -64.1881,2.29098 -36.07435,-119.75109 18.66192,-72.57495 -76.93176,-20.87929 79.28501,47.55868 -18.66192,72.57495 z m -0.36982,-17.93405 c -7.42644,-4.21684 -9.53587,6.71895 0,0 z M 219.20031,541.8977 c 1.10392,-11.03622 -8.59051,8.73651 0,0 z m 278.94254,48.60736 c 3.99946,-12.4955 4.85365,9.77311 0,0 z m -31.41377,-4.69316 c -0.62279,-16.62136 5.1955,6.06627 0,0 z m 70.91727,-3.19337 c 2.05914,-32.34892 44.75515,0.15409 0,0 z m -15.86402,-9.30732 c -2.61747,-5.434 6.1877,1.37742 0,0 z M 126.14285,566.1275 c 0.30545,-7.36304 4.81323,0.80292 0,0 z m 30.23884,-12.33896 c 14.69834,-18.25133 14.94761,1.97636 0,0 z m -17.81356,-4.90438 c 15.56334,-21.95467 95.90753,-45.38148 31.24003,-16.85391 -10.26191,5.8857 -20.40545,12.04424 -31.24003,16.85391 z m -10.42528,-19.3791 c 8.5955,-40.85209 8.45275,18.92562 0,0 z M 269.2079,518.33397 c -26.99402,-28.43857 28.33682,-5.2841 0,0 z M 106.64285,505.00506 c 1.8642,-12.4594 14.35817,5.90523 0,0 z m 22.17443,-11.40604 c 5.09503,-18.31445 14.10219,4.50033 0,0 z m 153.82557,0.0161 c 23.00843,-34.92941 41.54689,1.1264 0,0 z m -72.63922,-11.65954 c -6.58628,-6.55799 16.188,10.02147 0,0 z m 12.49098,-3.39604 c -43.77733,-21.84548 52.05722,14.75895 0,0 z M 44.642847,441.00506 c 3.558745,-10.46243 12.84211,13.31318 0,0 z m 154.861633,-9.5 c 4.60485,-16.16282 27.24683,-0.24979 0,0 z M 26.273924,429.00357 c -55.178299,-39.03905 76.191226,1.39167 0,0 z m 193.421716,-8.9131 c -0.29754,-5.34682 4.6493,2.65725 0,0 z m -198.322896,-15.711 c -53.003041,-18.18589 29.354019,-14.92551 1.786479,2.41089 l -1.786479,-2.41089 z m 50.759043,-53.39508 c -3.237926,-13.51621 8.603896,7.94451 0,0 z m 46.011063,-33.39987 c 7.21699,-13.31215 9.34355,12.4981 0,0 z m -1.97648,-30.71235 c -31.276576,-26.43469 6.7901,-22.46698 0,0 z m 13.63528,-20.90171 c -23.9646,-24.65274 -15.40186,-72.09244 5.74128,-17.07691 6.38673,5.8055 8.10256,24.16241 -5.74128,17.07691 z m 251.5589,-106.1199 c 3.91308,-8.56006 4.48224,4.73448 0,0 z"
         id="path5335"
         inkscape:connector-curvature="0" />
      <path
         style="fill:#614637;stroke:#c87137"
         d="m 425.14285,876.00506 c 6.50961,-5.73053 0.0426,3.83709 0,0 z m 5.83029,-4.5 c 7.8071,-12.6043 -1.89339,11.40524 0,0 z m -27.79046,1.04799 c 5.98757,-24.3876 26.68393,7.03267 0,0 z m -21.53983,-7.54799 c 2.61334,-4.41017 3.07807,4.65291 0,0 z m 63.5,-6.46482 c 6.72368,-13.28248 12.16448,7.57086 0,0 z m 40.52606,-0.93058 c -1.18604,-22.50659 11.0803,-0.27605 0,0 z M 464.9574,851.3396 c -41.22118,-15.33 50.84952,-6.12284 0,0 z m 28.99795,-4.01765 1.45169,0.31915 -1.45169,-0.31915 z m 5.1875,-4.7099 2.34179,-0.66957 -2.34179,0.66957 z m 26,-7.98455 3.0404,-2.55699 -3.0404,2.55699 z m 7.66667,-2.28911 c -3.19905,-9.97082 10.28536,2.81848 0,0 z m 5.89212,-6.42846 c 8.34558,-10.59719 12.7906,4.48955 0,0 z M 285.71916,811.25506 c -23.73015,-8.00342 16.91141,-7.08791 0,0 z m 27.66032,-1.41337 c -5.2451,-9.61697 10.19418,0.15061 0,0 z m 243.76711,-1.94708 c 2.66565,-13.47461 9.57461,-4.09319 0,0 z M 302.8517,802.38058 c -5.44568,-17.16652 14.19359,-1.74621 0,0 z m 22.04115,-1.45745 c -7.16584,-9.95579 12.85939,1.6261 0,0 z m 278.25,-22.93277 c 3.94445,-14.44697 34.96593,-30.81242 11.15374,-8.57601 l -11.15374,8.57601 z M 180.18181,744.8165 c -6.70399,-17.04276 17.43599,5.80203 0,0 z m 449.97635,-0.50242 c -2.98754,-11.1379 6.27042,2.1323 0,0 z m -17.01531,-1.77006 c 2.9827,-16.15434 8.75804,2.26272 0,0 z m -412.06806,-4.66613 c 4.75358,-13.36018 11.14379,10.70604 0,0 z m -26.36597,-4.0821 c -3.05711,-11.71525 8.55079,7.90199 0,0 z m 462.68893,-5.79073 c 17.1483,-16.31356 28.41363,-10.51279 0,0 z m 33.44541,-23.37473 c 8.97545,-13.05668 21.93462,-10.35804 0,0 z m 19.27775,-16.62527 c 40.5482,-37.59344 -30.66617,-59.43678 11.86322,-83.03688 -52.96936,-33.68202 -47.25846,34.30398 -42.57429,30.0004 -35.15651,-63.20887 33.32109,-132.31114 83.25131,-84.99723 -15.79216,25.89897 -38.07097,119.43164 -10.52639,41.10748 8.86754,-37.63779 33.19253,-55.90649 7.25232,-7.99578 -1.60694,48.12277 -30.71377,66.18031 -49.26617,104.92201 z m -16.31668,-99.79657 c -6.71311,-11.75397 -9.40265,11.23185 0,0 z m -7.97827,-20.39093 -0.31918,1.45172 0.31918,-1.45172 z m 12.05631,38.06155 c -6.61037,-10.02401 12.42056,0.84984 0,0 z m -43.92698,-20.94365 c 3.2116,-32.42138 -64.53743,-29.10878 -14.00956,-43.43637 -20.85916,-41.9939 14.318,-19.24887 24.49749,4.1298 -31.11511,-0.58488 -4.47718,38.26087 -10.48793,39.30657 z M 330.2218,583.42173 c 1.11618,-3.63707 0.5013,5.10606 0,0 z m 229.67105,-50.67716 c -11.55124,-12.27625 20.18001,2.96435 0,0 z m 194.28063,-9.23951 c 1.74715,-21.15774 1.50357,21.71551 0,0 z m -254.66805,-3.99752 c -0.88776,-14.16084 17.41623,-1.86847 0,0 z m 83.88742,-10.16915 c -2.35296,-7.01933 8.92978,3.24373 0,0 z m 9.75,-1.66666 c 3.39104,-7.62587 6.00544,7.80222 0,0 z m 158.89979,0.0833 c -13.61633,-24.79223 10.42754,-15.60731 0,0 z M 553.03963,492.94281 c -31.68992,-23.19199 0.45453,-14.23976 0,0 z m 133.10322,-8.31704 c -63.14521,7.58948 -13.89588,-121.35453 -57.35267,-96.78055 15.49947,64.12169 -30.46103,-33.41635 15.03244,-40.95933 11.01925,-41.02973 21.60375,14.9778 63.27992,-15.21417 44.56952,20.50317 16.0145,108.24403 43.23424,151.401 -6.757,-43.95974 -42.61504,18.75441 -64.19393,1.55305 z m -18.92308,-55.54379 c 8.39298,-18.56849 -17.92659,10.67587 0,0 z m -365.07692,53.04111 c 0.31562,-5.15488 4.00708,2.11107 0,0 z m 444.5,-29.11803 c 2.02425,-4.15383 1.43143,3.90518 0,0 z m -268.5,-3.05902 c 3.07372,-2.50111 1.41202,4.10779 0,0 z m 270,-2.40202 c 9.04257,-37.72035 -37.91062,-114.26022 1.27711,-36.93662 5.75928,11.02341 11.43813,27.93451 -1.27711,36.93662 z M 605.0554,443.0739 c -35.85466,-4.4671 -87.15705,-50.34466 -23.83646,-25.25501 5.55106,5.1841 72.87683,28.81393 23.83646,25.25501 z M 425.14285,420.62309 c -0.38793,-7.00928 4.56719,3.48076 0,0 z m 35.29923,-4.72405 c -11.02155,-9.48038 16.26321,1.78425 0,0 z m 128.36744,-1.56065 c -7.18168,-15.01893 12.03129,-1.45855 0,0 z M 254.71428,403.43363 c -8.35048,-11.12145 9.26161,0.80298 0,0 z m -101.96769,-1.01881 c 1.21638,-8.93189 7.11147,8.78956 0,0 z m 104.59121,-9.90976 c 1.71272,-4.31868 -0.19921,6.84454 0,0 z m -112.18634,-2.98963 c -1.8301,-14.0531 16.68927,-0.10185 0,0 z m 29.94154,-1.60351 c -8.1474,-20.76166 13.53245,6.89405 0,0 z m -12.28348,-3.57353 c -21.06051,-24.79549 9.2398,-17.24952 0,0 z m 28.01666,0.0167 c -7.79703,-9.35422 8.62182,-4.0815 0,0 z m 386.95615,-3.04385 c -7.80204,-16.97914 12.53287,-20.28431 0,0 z m -358.63948,-3.80618 c 3.44574,-6.33762 3.44574,6.33762 0,0 z m 228.96421,-0.66435 c -2.20653,-6.30802 5.538,7.94087 0,0 z m -222.77665,-1.136 c -5.32259,-47.76753 31.83424,-67.05542 11.72499,-12.68108 -3.29103,2.81629 -4.39066,15.30913 -11.72499,12.68108 z m -9.52089,-9.36632 c -7.01211,-10.44344 9.20522,-1.18516 0,0 z m 348.09921,-6.55941 c -4.97552,-46.91792 -107.06346,-51.7193 -148.17935,-71.98559 -38.87789,21.96955 -93.90363,7.79176 -71.41592,-19.23674 25.93282,-25.79538 -88.26362,-10.70962 -22.99843,-31.42141 47.09715,-0.23351 -2.97761,-64.1744 56.48676,-53.13731 24.34811,-1.32953 129.50587,-11.30656 62.14247,-22.58358 40.38556,-8.5858 143.984,13.61066 125.6498,25.97577 -26.08612,13.79716 -69.72874,-2.06313 -54.75297,26.17767 -39.7536,33.17545 -117.67857,-55.23544 -136.39617,13.19401 45.84064,26.67395 124.0731,68.16671 149.22981,30.74547 -34.32957,31.84856 39.78471,100.56721 5.77934,37.49445 -4.49117,-97.83394 16.577,82.8374 66.83075,27.77292 -34.14842,-35.72943 -82.53762,-123.303 4.50237,-124.66945 26.03835,33.43204 24.48399,10.37951 52.90101,23.63397 -47.02966,14.24933 54.37884,38.31394 2.1332,82.02399 -23.81983,22.32992 -61.72786,54.48573 -91.91267,56.01583 z m 43.73412,-60.77392 c -3.30495,-10.62561 -3.79557,9.91932 0,0 z m -142.51057,0.51273 c 0.18905,-13.29037 -11.84702,7.93334 0,0 z m 48.71722,-2.66315 c 12.36294,-35.38098 -13.14265,11.60071 0,0 z m -61.70665,0.15042 c -2.69856,-7.068 -2.32476,7.45756 0,0 z m 150.5,-3.47592 c -9.44432,-21.13221 -11.29142,17.67944 0,0 z m -242.6875,-10.46158 c -4.06729,-4.00407 -1.6041,6.53109 0,0 z m 72.9375,-10.31109 c -11.5201,-36.89343 -42.28544,9.91782 0,0 z m 139.51936,-2.00141 c 2.55592,-13.65941 -8.62737,5.25414 0,0 z m 91.33481,-8.47917 c -5.44405,0.21732 3.98374,4.78269 0,0 z m -256.79439,-4.45194 c -18.46041,-45.55302 -50.57814,4.21927 0,0 z m 156.19022,1.7881 -2.34179,-0.66957 2.34179,0.66957 z M 363.28837,243.12738 c -6.03188,-21.11483 -21.7019,13.91299 0,0 z m -5.14552,-23.70565 c -3.70225,-5.14703 -2.596,6.34915 0,0 z m 231,139.08333 c 2.71694,-9.58081 3.76975,8.2998 0,0 z m -87,-0.5 c 2.02425,-4.15383 1.43143,3.90518 0,0 z m -122.76578,-4.06953 c -40.29566,-13.30935 12.08633,-19.97513 0,0 z m 112.76578,1.68406 c 22.51273,-42.81998 40.15809,14.1722 0,0 z m 235.48681,0.36413 c -13.14983,-28.82296 21.49558,-20.38377 0,0 z m -522.91347,-5.43939 c -4.36706,-34.77347 10.94119,-13.27168 0,0 z m 10.52852,2.33367 c -7.51453,-30.41374 19.7545,-36.4311 0,0 z m -61.02928,-2.5078 c -41.113,-53.76851 2.90381,-29.92016 0,0 z m 470.53799,1.06242 c -1.5788,-15.67849 11.79214,7.65056 0,0 z m -181.36057,-2.08984 c -4.85648,-11.18157 12.00125,1.96124 0,0 z m 197.75,-4.17105 c -19.4646,-5.41021 16.12034,-9.23077 0,0 z m -11,-1.16667 c 2.02425,-4.15383 1.43143,3.90518 0,0 z m -192.25597,-0.5893 c -3.77402,-23.34271 13.08098,-7.25129 0,0 z M 87.683317,339.26528 c -41.231126,-19.61712 2.279863,-25.50532 10.735188,-1.64806 l -10.735188,1.64806 z m 321.126203,-3.92689 c -0.99699,-13.43011 13.57393,7.44798 0,0 z m -282.05643,-6.15495 c 2.01683,-14.67148 10.24414,6.05684 0,0 z m 596.34334,-3.42838 c -28.60146,-23.392 5.41131,-16.73444 0,0 z m -572.95358,-2.1365 5.60027,-0.3989 -5.60027,0.3989 z m -94.361629,-5.1135 c 1.113588,-5.373 2.048416,5.70363 0,0 z m 147.942859,-4.36857 c -15.14968,-55.524 29.84853,-38.76294 0,0 z m 466.66877,-0.79371 c -6.69532,-8.15412 9.50726,1.86814 0,0 z M 52.181993,309.07821 c -0.04875,-9.02133 7.9726,6.62863 0,0 z m 305.960857,-0.0731 c 3.66246,-4.83138 4.27567,5.17878 0,0 z m -265.500003,-1 c 1.431434,-3.90518 2.024253,4.15383 0,0 z m 90.455373,-1.08339 c -17.34375,-36.51882 -3.90909,-87.48509 2.23137,-19.94113 l 0.57233,10.24988 -2.8037,9.69125 z m 527.01837,-1.10811 c -34.98004,-18.76961 13.49764,2.51941 0,0 z m -518.10389,-3.5585 c -13.86071,-63.88975 18.35834,-7.52925 0,0 z m 99.13015,-3.59084 c 13.29376,-31.59136 59.95295,-13.62691 10.5456,-3.32172 l -5.25639,2.59385 -5.28921,0.72787 z m 398.87244,-7.40916 1.19445,0.87694 -1.19445,-0.87694 z m -460.87244,-0.75 c 3.61574,-8.34543 3.91378,7.68926 0,0 z m 454,-8.55902 c 3.07372,-2.50111 1.41202,4.10779 0,0 z m -378.1875,-2.62409 1.45169,0.31915 -1.45169,-0.31915 z M 130.52717,265.25506 c -21.93025,-36.30039 -17.62887,-59.31293 6.48923,-11.06076 6.86239,5.71398 -0.67605,13.1283 -6.48923,11.06076 z m 6.57467,-6 c -2.22233,-31.24736 -14.78361,7.07609 0,0 z m -11.95899,-20.25 c -2.29716,-4.22507 -2.29716,4.22507 0,0 z m 101,30 c 2.02425,-4.15383 1.43143,3.90518 0,0 z m -25.25,-5.94506 c -31.57679,-34.29667 25.63081,7.58189 0,0 z m -45.18698,-0.75132 c 2.31463,-29.76399 16.03221,-40.09066 0,0 z m 59.10365,-4.97029 c -1.075,-5.72082 5.86536,4.0029 0,0 z m -24.65113,-7.81461 c 0.84954,-8.03827 8.23601,8.05513 0,0 z m 334.82594,-12.9673 c -3.21531,-18.37106 10.82872,11.24866 0,0 z m -236.64148,-4.75142 c 2.11544,-53.41831 60.56992,4.04242 0,0 z M 174.4696,230.41417 c -9.04049,-23.06449 20.63444,-1.5752 0,0 z m 15.67325,-2.32578 c 2.52571,-9.16867 3.9693,6.82437 0,0 z m 207.75,0.25819 c -22.53987,-42.02178 45.64989,1.16023 0,0 z m -124.75,-0.7825 c 1.08358,-5.65108 3.42128,3.98928 0,0 z m 237,-5.61804 c 3.07372,-2.50111 1.41202,4.10779 0,0 z m 33.73333,-8.06507 1.3915,-0.22253 -1.3915,0.22253 z m 78.56636,-12.12591 c -53.83295,-22.84641 -15.96781,-21.94812 0,0 z m -299.29969,-3.4081 c 12.32955,-22.61189 23.79903,-27.86996 2.98441,-1.68234 l -2.98441,1.68234 z m 261.82666,-17.26361 c -26.89659,-3.311 5.62906,-5.86464 0,0 z m -216.32666,-7.02357 c 2.44437,-11.60215 21.34315,9.07546 0,0 z m -14.13837,-0.55472 c -15.19072,-7.26229 24.20652,0.96494 0,0 z m 28.63837,-3.17778 c 2.12535,-36.23429 27.00267,5.21897 0,0 z m 41.5602,-3.22481 c 5.1279,-12.87615 7.41758,3.42732 0,0 z m -14.0602,-1.09741 c 7.80838,-5.21438 7.80838,5.21438 0,0 z m -13.40083,-11.5565 c -23.41869,-14.37182 14.51434,3.79569 0,0 z"
         id="path5333"
         inkscape:connector-curvature="0" />
    </g>
  </g>
</svg>
